<?xml version="1.0" encoding="UTF-8"?>
<svg width="161px" height="48px" viewBox="0 0 161 48" version="1.1" xmlns="http://www.w3.org/2000/svg" xmlns:xlink="http://www.w3.org/1999/xlink">
    <!-- Generator: Sketch 53 (72520) - https://sketchapp.com -->
    <title>app-store</title>
    <desc>Created with Sketch.</desc>
    <g id="app-store" stroke="none" stroke-width="1" fill="none" fill-rule="evenodd">
        <rect fill="#000000" x="0" y="0" width="161" height="48"></rect>
        <g id="Appstore" transform="translate(1.000000, 0.000000)">
            <rect id="backfround-copy" fill="#FFFFFF" x="0" y="0.408736832" width="159" height="47" rx="3.2"></rect>
            <path d="M60.9923834,36.6410485 L63.6193175,36.6410485 L57.8687602,20.7087604 L55.2087135,20.7087604 L49.4581561,36.6410485 L51.9967899,36.6410485 L53.4647825,32.4123123 L59.5354284,32.4123123 L60.9923834,36.6410485 Z M56.4118051,23.6015251 L56.5994433,23.6015251 L58.9062887,30.336588 L54.0939221,30.336588 L56.4118051,23.6015251 Z M70.5846769,24.4185655 C68.9511212,24.4185655 67.5383164,25.2356059 66.8098388,26.6047007 L66.6332382,26.6047007 L66.6332382,24.6173051 L64.3484678,24.6173051 L64.3484678,40.5385521 L66.7215385,40.5385521 L66.7215385,34.8192692 L66.9091767,34.8192692 C67.5383164,36.0889941 68.8959335,36.839788 70.6067519,36.839788 C73.6420749,36.839788 75.5736441,34.4438722 75.5736441,30.6236562 C75.5736441,26.8034402 73.6420749,24.4185655 70.5846769,24.4185655 L70.5846769,24.4185655 Z M69.911387,34.7088583 C67.9246302,34.7088583 66.6773884,33.141024 66.6773884,30.6346973 C66.6773884,28.1173295 67.9246302,26.5494952 69.9224246,26.5494952 C71.9312565,26.5494952 73.1343482,28.0842063 73.1343482,30.6236562 C73.1343482,33.1741472 71.9312565,34.7088583 69.911387,34.7088583 L69.911387,34.7088583 Z M82.8922047,24.4185655 C81.258649,24.4185655 79.8458441,25.2356059 79.1173666,26.6047007 L78.940766,26.6047007 L78.940766,24.6173051 L76.6559956,24.6173051 L76.6559956,40.5385521 L79.0290663,40.5385521 L79.0290663,34.8192692 L79.2167045,34.8192692 C79.8458441,36.0889941 81.2034613,36.839788 82.9142797,36.839788 C85.9496027,36.839788 87.8811719,34.4438722 87.8811719,30.6236562 C87.8811719,26.8034402 85.9496027,24.4185655 82.8922047,24.4185655 L82.8922047,24.4185655 Z M82.2189148,34.7088583 C80.232158,34.7088583 78.9849162,33.141024 78.9849162,30.6346973 C78.9849162,28.1173295 80.232158,26.5494952 82.2299524,26.5494952 C84.2387843,26.5494952 85.441876,28.0842063 85.441876,30.6236562 C85.441876,33.1741472 84.2387843,34.7088583 82.2189148,34.7088583 L82.2189148,34.7088583 Z M92.9045973,32.3571068 C93.081198,35.2057072 95.4542686,37.0274865 98.9862808,37.0274865 C102.761119,37.0274865 105.123152,35.1173785 105.123152,32.0700386 C105.123152,29.6741228 103.776572,28.3491924 100.509461,27.5873574 L98.7544925,27.156755 C96.6794354,26.6709472 95.8405825,26.0195231 95.8405825,24.8822911 C95.8405825,23.4469499 97.143012,22.5084575 99.0966562,22.5084575 C100.950963,22.5084575 102.231317,23.4248677 102.463105,24.8933322 L104.869289,24.8933322 C104.725801,22.2103482 102.363768,20.3223223 99.1297688,20.3223223 C95.6529443,20.3223223 93.3350613,22.2103482 93.3350613,25.0479074 C93.3350613,27.3886178 94.6485284,28.7797947 97.5293258,29.453301 L99.5823079,29.9501499 C101.690478,30.4469988 102.617631,31.1757106 102.617631,32.3902301 C102.617631,33.8034892 101.160676,34.8303103 99.173919,34.8303103 C97.0436741,34.8303103 95.564644,33.8697357 95.3549308,32.3571068 L92.9045973,32.3571068 Z M107.165769,21.7024582 L107.165769,24.6725105 L105.19005,24.6725105 L105.19005,26.6709472 L107.165769,26.6709472 L107.165769,33.4612155 C107.165769,35.7798437 108.214336,36.707295 110.852307,36.707295 C111.315884,36.707295 111.746348,36.6520896 112.121624,36.585843 L112.121624,34.6094885 C111.790498,34.6426118 111.60286,34.664694 111.238621,34.664694 C110.057604,34.664694 109.53884,34.1126396 109.53884,32.8539557 L109.53884,26.6709472 L112.231999,26.6709472 L112.231999,24.6725105 L109.53884,24.6725105 L109.53884,21.7024582 L107.165769,21.7024582 Z M118.11568,34.7640637 C116.05166,34.7640637 114.892719,33.2514349 114.892719,30.6236562 C114.892719,28.0179598 116.05166,26.4942898 118.11568,26.4942898 C120.168662,26.4942898 121.338641,28.0179598 121.338641,30.6236562 C121.338641,33.2403938 120.168662,34.7640637 118.11568,34.7640637 L118.11568,34.7640637 Z M118.11568,36.8729113 C121.625617,36.8729113 123.777937,34.5211598 123.777937,30.6236562 C123.777937,26.7482348 121.61458,24.3854422 118.11568,24.3854422 C114.605743,24.3854422 112.442385,26.7482348 112.442385,30.6236562 C112.442385,34.5211598 114.594705,36.8729113 118.11568,36.8729113 L118.11568,36.8729113 Z M124.860289,36.6410485 L127.233359,36.6410485 L127.233359,29.5416297 C127.233359,27.8523435 128.502676,26.7151115 130.290757,26.7151115 C130.688109,26.7151115 131.416586,26.7923991 131.604224,26.8586457 L131.604224,24.5179353 C131.350361,24.4516888 130.897822,24.4185655 130.555658,24.4185655 C128.988328,24.4185655 127.663823,25.2797703 127.32166,26.4611665 L127.145059,26.4611665 L127.145059,24.6173051 L124.860289,24.6173051 L124.860289,36.6410485 Z M136.947066,26.4059611 C138.702034,26.4059611 139.849938,27.6315217 139.905126,29.5195476 L133.83448,29.5195476 C133.96693,27.6425628 135.192097,26.4059611 136.947066,26.4059611 L136.947066,26.4059611 Z M139.894088,33.394969 C139.452587,34.3334614 138.470246,34.8523924 137.035366,34.8523924 C135.136909,34.8523924 133.911743,33.5164209 133.83448,31.4075734 L133.83448,31.2750803 L142.322347,31.2750803 L142.322347,30.4469988 C142.322347,26.6709472 140.302477,24.3854422 136.958103,24.3854422 C133.569579,24.3854422 131.417259,26.8255224 131.417259,30.6678206 C131.417259,34.5101187 133.525429,36.8729113 136.969141,36.8729113 C139.717488,36.8729113 141.638019,35.5479809 142.178859,33.394969 L139.894088,33.394969 Z" id="App-Store" fill="#071228"></path>
            <path d="M51.6820624,8.27260608 L51.6820624,15.8594099 L54.420423,15.8594099 C56.6804903,15.8594099 57.989227,14.4661299 57.989227,12.0423485 C57.989227,9.65537075 56.6699784,8.27260608 54.420423,8.27260608 L51.6820624,8.27260608 Z M52.8593998,9.34516879 L54.2890238,9.34516879 C55.8605589,9.34516879 56.7908657,10.3441242 56.7908657,12.0581215 C56.7908657,13.7984071 55.8763269,14.7868472 54.2890238,14.7868472 L52.8593998,14.7868472 L52.8593998,9.34516879 Z M62.131983,14.9656077 C61.1491165,14.9656077 60.5972396,14.2453082 60.5972396,12.9939851 C60.5972396,11.7531772 61.1491165,11.0276201 62.131983,11.0276201 C63.1095935,11.0276201 63.6667264,11.7531772 63.6667264,12.9939851 C63.6667264,14.2400506 63.1095935,14.9656077 62.131983,14.9656077 L62.131983,14.9656077 Z M62.131983,15.9698208 C63.8033816,15.9698208 64.8282959,14.8499392 64.8282959,12.9939851 C64.8282959,11.1485463 63.7981256,10.023407 62.131983,10.023407 C60.4605843,10.023407 59.4304141,11.1485463 59.4304141,12.9939851 C59.4304141,14.8499392 60.4553284,15.9698208 62.131983,15.9698208 L62.131983,15.9698208 Z M73.6856574,10.1338178 L72.5556237,10.1338178 L71.5359654,14.5029336 L71.4466139,14.5029336 L70.2692765,10.1338178 L69.1865466,10.1338178 L68.0092092,14.5029336 L67.9251137,14.5029336 L66.9001994,10.1338178 L65.7543979,10.1338178 L67.331189,15.8594099 L68.4927585,15.8594099 L69.6700959,11.6427664 L69.7594474,11.6427664 L70.9420408,15.8594099 L72.1141222,15.8594099 L73.6856574,10.1338178 Z M75.1215885,15.8594099 L76.2516222,15.8594099 L76.2516222,12.5102803 C76.2516222,11.616478 76.8087551,11.0591661 77.718038,11.0591661 C78.5589933,11.0591661 78.968959,11.5165825 78.968959,12.4366731 L78.968959,15.8594099 L80.0989926,15.8594099 L80.0989926,12.1527594 C80.0989926,10.7910254 79.3789247,10.023407 78.1017238,10.023407 C77.2397447,10.023407 76.5722364,10.4072162 76.29367,11.0433931 L76.2095744,11.0433931 L76.2095744,10.1338178 L75.1215885,10.1338178 L75.1215885,15.8594099 Z M82.0079611,15.8594099 L83.1379948,15.8594099 L83.1379948,7.89931219 L82.0079611,7.89931219 L82.0079611,15.8594099 Z M87.5172694,14.9656077 C86.5344029,14.9656077 85.982526,14.2453082 85.982526,12.9939851 C85.982526,11.7531772 86.5344029,11.0276201 87.5172694,11.0276201 C88.49488,11.0276201 89.0520128,11.7531772 89.0520128,12.9939851 C89.0520128,14.2400506 88.49488,14.9656077 87.5172694,14.9656077 L87.5172694,14.9656077 Z M87.5172694,15.9698208 C89.1886681,15.9698208 90.2135823,14.8499392 90.2135823,12.9939851 C90.2135823,11.1485463 89.1834121,10.023407 87.5172694,10.023407 C85.8458708,10.023407 84.8157006,11.1485463 84.8157006,12.9939851 C84.8157006,14.8499392 85.8406148,15.9698208 87.5172694,15.9698208 L87.5172694,15.9698208 Z M93.7098539,15.0024113 C93.0949054,15.0024113 92.6481479,14.7027247 92.6481479,14.187474 C92.6481479,13.6827386 93.0055539,13.4145979 93.7939494,13.3620213 L95.1920376,13.2726411 L95.1920376,13.7510881 C95.1920376,14.4608723 94.5613211,15.0024113 93.7098539,15.0024113 L93.7098539,15.0024113 Z M93.4207755,15.9540478 C94.1723793,15.9540478 94.7978398,15.6280729 95.1394779,15.0549879 L95.2288294,15.0549879 L95.2288294,15.8594099 L96.3168153,15.8594099 L96.3168153,11.9477106 C96.3168153,10.7384488 95.5073958,10.023407 94.0725159,10.023407 C92.7742912,10.023407 91.8492403,10.6543262 91.733609,11.6375087 L92.8268509,11.6375087 C92.9529942,11.2326688 93.3892397,11.0013318 94.0199562,11.0013318 C94.7925838,11.0013318 95.1920376,11.3430797 95.1920376,11.9477106 L95.1920376,12.4419307 L93.6415263,12.5313109 C92.2802299,12.6154335 91.5128582,13.2095491 91.5128582,14.2400506 C91.5128582,15.286325 92.3170217,15.9540478 93.4207755,15.9540478 L93.4207755,15.9540478 Z M100.286124,15.9540478 C101.07452,15.9540478 101.742028,15.5807539 102.083666,14.9550924 L102.173018,14.9550924 L102.173018,15.8594099 L103.255748,15.8594099 L103.255748,7.89931219 L102.125714,7.89931219 L102.125714,11.0433931 L102.041618,11.0433931 C101.731516,10.4124738 101.069264,10.0391799 100.286124,10.0391799 C98.8407323,10.0391799 97.9104256,11.1853499 97.9104256,12.9939851 C97.9104256,14.8078779 98.8302204,15.9540478 100.286124,15.9540478 L100.286124,15.9540478 Z M100.606738,11.0539084 C101.552813,11.0539084 102.146738,11.8057538 102.146738,12.9992427 C102.146738,14.1979893 101.558069,14.9393194 100.606738,14.9393194 C99.6501518,14.9393194 99.077251,14.2085046 99.077251,12.9939851 C99.077251,11.7899808 99.6554078,11.0539084 100.606738,11.0539084 L100.606738,11.0539084 Z M110.847471,14.9656077 C109.864605,14.9656077 109.312728,14.2453082 109.312728,12.9939851 C109.312728,11.7531772 109.864605,11.0276201 110.847471,11.0276201 C111.825082,11.0276201 112.382215,11.7531772 112.382215,12.9939851 C112.382215,14.2400506 111.825082,14.9656077 110.847471,14.9656077 L110.847471,14.9656077 Z M110.847471,15.9698208 C112.51887,15.9698208 113.543784,14.8499392 113.543784,12.9939851 C113.543784,11.1485463 112.513614,10.023407 110.847471,10.023407 C109.176073,10.023407 108.145903,11.1485463 108.145903,12.9939851 C108.145903,14.8499392 109.170817,15.9698208 110.847471,15.9698208 L110.847471,15.9698208 Z M115.16893,15.8594099 L116.298964,15.8594099 L116.298964,12.5102803 C116.298964,11.616478 116.856097,11.0591661 117.76538,11.0591661 C118.606335,11.0591661 119.016301,11.5165825 119.016301,12.4366731 L119.016301,15.8594099 L120.146334,15.8594099 L120.146334,12.1527594 C120.146334,10.7910254 119.426267,10.023407 118.149066,10.023407 C117.287087,10.023407 116.619578,10.4072162 116.341012,11.0433931 L116.256916,11.0433931 L116.256916,10.1338178 L115.16893,10.1338178 L115.16893,15.8594099 Z M125.614646,8.74579551 L125.614646,10.1601061 L124.673827,10.1601061 L124.673827,11.1117427 L125.614646,11.1117427 L125.614646,14.3452038 C125.614646,15.4493124 126.113963,15.8909559 127.37014,15.8909559 C127.590891,15.8909559 127.795874,15.8646676 127.974577,15.8331216 L127.974577,14.8920004 C127.816898,14.9077734 127.727546,14.9182887 127.554099,14.9182887 C126.99171,14.9182887 126.74468,14.6554057 126.74468,14.0560324 L126.74468,11.1117427 L128.027137,11.1117427 L128.027137,10.1601061 L126.74468,10.1601061 L126.74468,8.74579551 L125.614646,8.74579551 Z M129.636515,15.8594099 L130.766549,15.8594099 L130.766549,12.515538 C130.766549,11.648024 131.339449,11.0644237 132.2645,11.0644237 C133.115967,11.0644237 133.541701,11.5270978 133.541701,12.4419307 L133.541701,15.8594099 L134.671735,15.8594099 L134.671735,12.1632747 C134.671735,10.8015407 133.935899,10.0286646 132.648186,10.0286646 C131.786207,10.0286646 131.123955,10.4124738 130.845388,11.0539084 L130.756037,11.0539084 L130.756037,7.89931219 L129.636515,7.89931219 L129.636515,15.8594099 Z M138.882818,10.9855588 C139.718518,10.9855588 140.265138,11.5691591 140.291418,12.468219 L137.400635,12.468219 C137.463706,11.5744168 138.047119,10.9855588 138.882818,10.9855588 L138.882818,10.9855588 Z M140.286162,14.3136578 C140.075924,14.7605589 139.608142,15.007669 138.924866,15.007669 C138.020839,15.007669 137.437426,14.3714921 137.400635,13.3672789 L137.400635,13.304187 L141.442476,13.304187 L141.442476,12.9098625 C141.442476,11.1117427 140.480633,10.023407 138.888074,10.023407 C137.274491,10.023407 136.249577,11.1853499 136.249577,13.0150157 C136.249577,14.8446815 137.253467,15.9698208 138.89333,15.9698208 C140.202067,15.9698208 141.116606,15.3389016 141.374148,14.3136578 L140.286162,14.3136578 Z" id="Download-on-the" fill="#071228"></path>
            <g id="logo_apple" transform="translate(14.993496, 8.214351)" fill="#071228">
                <path d="M20.8116402,16.2112103 C20.7769998,12.3601065 23.9639196,10.486532 24.1096483,10.3993056 C22.3047623,7.76698117 19.5072487,7.40732177 18.5241771,7.37864461 C16.1746002,7.13130409 13.8954986,8.78502039 12.6986119,8.78502039 C11.4778353,8.78502039 9.63472535,7.40254224 7.64827569,7.44316822 C5.09205064,7.48259932 2.70066627,8.96305777 1.38910781,11.2620102 C-1.31762395,15.9495312 0.701077139,22.8380243 3.29433162,26.6269943 C4.59155611,28.4838404 6.10737367,30.5545705 8.09143433,30.4816827 C10.0324931,30.4028205 10.7575532,29.2437852 13.0999631,29.2437852 C15.4208721,29.2437852 16.1017358,30.4816827 18.1252149,30.4338874 C20.2084189,30.4028205 21.5199773,28.5710668 22.7718109,26.6974923 C24.2709055,24.5729926 24.8729324,22.4759752 24.8968223,22.3684358 C24.8490424,22.3529023 20.8522531,20.8270384 20.8116402,16.2112103" id="Fill-2"></path>
                <path d="M16.9892476,4.88612134 C18.0332386,3.58011562 18.7475482,1.8033265 18.5492616,0.00024997864 C17.038222,0.067163355 15.1485267,1.04577148 14.0603393,2.32310004 C13.0975741,3.44867863 12.2375358,5.293576 12.4597124,7.02854426 C14.1570936,7.15520172 15.8998657,6.17181407 16.9892476,4.88612134" id="Fill-3"></path>
            </g>
        </g>
    </g>
</svg>