<?xml version="1.0" encoding="UTF-8"?>
<svg width="161px" height="48px" viewBox="0 0 161 48" version="1.1" xmlns="http://www.w3.org/2000/svg" xmlns:xlink="http://www.w3.org/1999/xlink">
    <!-- Generator: Sketch 53 (72520) - https://sketchapp.com -->
    <title>g-play</title>
    <desc>Created with Sketch.</desc>
    <g id="g-play" stroke="none" stroke-width="1" fill="none" fill-rule="evenodd">
        <rect fill="#000000" x="0" y="0" width="161" height="48"></rect>
        <g id="Group-6">
            <g id="Playstore" transform="translate(0.153117, 0.317464)">
                <rect id="background" fill="#FFFFFF" x="0" y="0" width="160.064065" height="47.291265" rx="4"></rect>
                <g id="get-it-on" transform="translate(49.084878, 7.968089)" fill="#071228">
                    <path d="M35.7372358,7.75273562 C33.597065,7.75273562 31.8621138,6.01722664 31.8621138,3.87636781 C31.8621138,1.73550898 33.597065,0 35.7372358,0 C37.8774065,0 39.6123577,1.73550898 39.6123577,3.87636781 C39.6123577,6.01722664 37.8774065,7.75273562 35.7372358,7.75273562 Z M35.7372358,6.5682899 C37.2234655,6.5682899 38.4282927,5.36307533 38.4282927,3.87636781 C38.4282927,2.38966029 37.2234655,1.18444572 35.7372358,1.18444572 C34.2510061,1.18444572 33.0461789,2.38966029 33.0461789,3.87636781 C33.0461789,5.36307533 34.2510061,6.5682899 35.7372358,6.5682899 Z" id="o"></path>
                    <path d="M9.47252033,4.30707534 L9.47252033,6.67596678 L12.5941463,6.67596678 L12.5941463,7.53738185 L9.47252033,7.53738185 L8.28845528,7.53738185 L8.28845528,0.430707534 L8.28845528,0.323030651 L12.5941463,0.323030651 L12.5941463,1.18444572 L9.47252033,1.18444572 L9.47252033,3.44566028 L12.2712195,3.44566028 L12.2712195,4.30707534 L9.47252033,4.30707534 Z" id="e"></path>
                    <path d="M16.7921951,1.18444572 L16.7921951,7.53738185 L15.6081301,7.53738185 L15.6081301,1.18444572 L13.7782114,1.18444572 L13.7782114,0.323030651 L18.6221138,0.323030651 L18.6221138,1.18444572 L16.7921951,1.18444572 Z" id="t"></path>
                    <path d="M27.3411382,1.18444572 L27.3411382,7.53738185 L26.1570732,7.53738185 L26.1570732,1.18444572 L24.3271545,1.18444572 L24.3271545,0.323030651 L29.1710569,0.323030651 L29.1710569,1.18444572 L27.3411382,1.18444572 Z" id="t"></path>
                    <rect id="i" x="22.0666667" y="0.323030651" width="1.18406504" height="7.2143512"></rect>
                    <path d="M41.7652033,0.323030651 L41.9804878,0.323030651 L45.2097561,5.60182421 L45.2097561,0.323030651 L46.3938211,0.323030651 L46.3938211,7.53738185 L45.2097561,7.53738185 L41.7652033,1.90666872 L41.7652033,7.53738185 L40.5811382,7.53738185 L40.5811382,0.323030651 L41.7652033,0.323030651 Z" id="n"></path>
                    <g id="g" transform="translate(0.000000, 0.107677)">
                        <polygon id="Rectangle-1" points="3.85179176 3.46397733 7.09371649 3.46397733 7.06161822 4.49034098 3.85179176 4.49034098"></polygon>
                        <path d="M6.45575759,1.04904513 L5.71391443,1.79032436 C5.25120458,1.3175934 4.59401861,1.05843752 3.83574263,1.05843752 C2.32005146,1.05843752 1.091341,2.28621394 1.091341,3.8007529 C1.091341,5.31529187 2.32005146,6.54306829 3.83574263,6.54306829 C5.35143379,6.54306829 6.42755211,5.66748938 6.4252952,3.8007529 C6.42785871,3.68538981 6.4251702,3.57309382 6.41745996,3.46397733 L7.36444704,3.46397733 C7.36455448,3.47666836 7.36460829,3.4893852 7.36460829,3.50212769 C7.7208238,6.11577175 5.9394328,7.62073759 3.80364436,7.6015058 C1.70295161,7.59849597 0,5.89985077 0,3.8007529 C0,1.70165504 1.70294959,0 3.80364436,0 C4.90168768,0 5.82475369,0.383336295 6.45575759,1.04904513 Z" id="Oval-1"></path>
                    </g>
                </g>
                <g id="googleplay" transform="translate(48.546667, 20.673962)" fill="#071228">
                    <g id="big-P" transform="translate(67.168780, 0.538384)">
                        <path d="M0.538211382,3.78445673e-07 L6.64076351,0 C6.64076351,0 10.1538345,0.597901133 10.1538343,4.63331462 C10.153834,8.66872811 6.64076351,9.26662924 6.64076351,9.26662924 L0.538211382,9.26662962 L0.538211382,3.78445673e-07 Z M1.72227642,2.24150029 L1.72227642,7.2143512 L5.86498696,7.2143512 C5.86498696,7.2143512 7.7502439,7.2143512 7.7502439,4.72792575 C7.7502439,2.24150029 5.86498696,2.24150029 5.86498696,2.24150029 L1.72227642,2.24150029 Z" id="Combined-Shape"></path>
                        <rect id="Rectangle-6" x="0" y="0" width="2.15284553" height="15.0747637"></rect>
                    </g>
                    <rect id="y" x="78.5788618" y="0.538384418" width="2.15284553" height="15.0747637"></rect>
                    <path d="M88.711016,14.5353169 C88.1180465,15.0247176 87.1700369,15.485325 85.6727497,15.5788682 C82.2425458,15.7931706 82.2407586,12.6620232 82.2407586,12.4508757 C82.2407586,12.2397283 82.0715689,9.68624021 84.800206,9.28034883 C86.7323496,8.99293779 88.0856097,9.47181983 88.711016,9.775882 L88.711016,9.33295897 C88.5576492,8.74635384 88.081714,7.6685079 86.6548804,7.6685079 C84.694623,7.6685079 84.2617319,8.72866253 84.2617319,8.72866253 L82.4684998,7.6685079 C82.4684998,7.6685079 83.4719601,5.59919795 86.482905,5.59919795 C90.226723,5.59919795 90.8640849,8.18229961 90.8640849,9.05228467 C90.8640849,9.05651934 90.8640102,9.06072663 90.8638616,9.06490671 L90.8638616,15.6083111 L88.711016,15.6083111 L88.711016,14.5353169 Z M88.5572263,11.3063882 C88.5572263,11.3063882 84.40974,10.1881365 84.2655687,12.5188573 C84.1213974,14.849578 88.2444961,13.7304326 88.6128871,12.0782128 C88.612887,11.5528148 88.5572263,11.3063882 88.5572263,11.3063882 Z" id="a"></path>
                    <path d="M94.9035295,15.0412138 L91.0653659,5.9222286 L93.2182114,5.9222286 L95.9799523,12.4837712 L98.7197409,5.97438459 L100.872586,5.97438459 L95.0481301,19.8125466 L92.8952846,19.8125466 L94.9035295,15.0412138 Z" id="y"></path>
                    <path d="M62.3491349,9.44602527 L55.5403341,12.2608598 C55.5403341,12.2608598 55.9800716,13.8177403 58.0271864,13.8281752 C59.6301537,13.8363461 60.5350378,12.4069162 60.5350378,12.4069162 L62.2625219,13.5771958 C62.2625219,13.5771958 60.868537,15.8324194 58.0135796,15.8324194 C54.5052306,15.8324194 52.96,12.7636674 52.96,10.7707186 C52.96,8.85056383 54.1865157,5.59919795 57.7958696,5.59919795 C61.4052235,5.59919795 62.3491349,9.44602527 62.3491349,9.44602527 Z M59.7585302,8.64862376 C59.7585302,8.64862376 58.9018885,7.34484568 57.5881032,7.58529117 C54.8090302,8.09390967 55.1587529,10.52666 55.1587529,10.52666 L59.7585302,8.64862376 Z" id="e"></path>
                    <rect id="i" x="49.7307317" y="0.538384418" width="2.27758121" height="15.043094"></rect>
                    <path d="M46.085953,5.92613327 L48.1913549,5.94432751 L48.1913549,15.4360587 C48.1913549,17.86117 46.7479797,20.4211076 43.3499248,20.4211076 C39.95187,20.4211076 38.8544233,17.4094201 38.8544233,17.4094201 L40.7880385,16.595957 C40.7880385,16.595957 41.3777787,18.4520579 43.4504064,18.4520554 C45.8106755,18.4520526 46.0862147,16.30404 46.0862147,15.568769 L46.0862147,14.5386963 C46.0862147,14.5386963 45.2695406,15.8172912 43.2410699,15.817294 C41.0417936,15.8172971 38.4282927,13.9324022 38.4282927,10.7190302 C38.4282927,7.50565813 40.8892396,5.66764538 43.2665173,5.60078718 C45.1706949,5.54723438 46.085953,6.86490846 46.085953,6.86490846 L46.085953,5.92613327 Z M43.4208376,13.8884612 C44.956183,13.8884612 46.2008264,12.4815898 46.2008264,10.746126 C46.2008264,9.01066221 44.956183,7.60379082 43.4208376,7.60379082 C41.8854921,7.60379082 40.6408487,9.01066221 40.6408487,10.746126 C40.6408487,12.4815898 41.8854921,13.8884612 43.4208376,13.8884612 Z" id="g"></path>
                    <path d="M32.3580537,15.8285019 C29.5278386,15.8285019 27.2334959,13.5385942 27.2334959,10.7138499 C27.2334959,7.88910563 29.5278386,5.59919795 32.3580537,5.59919795 C35.1882687,5.59919795 37.4826114,7.88910563 37.4826114,10.7138499 C37.4826114,13.5385942 35.1882687,15.8285019 32.3580537,15.8285019 Z M32.3245598,13.822756 C33.9153997,13.822756 35.2050302,12.4308513 35.2050302,10.7138499 C35.2050302,8.99684849 33.9153997,7.60494382 32.3245598,7.60494382 C30.73372,7.60494382 29.4440895,8.99684849 29.4440895,10.7138499 C29.4440895,12.4308513 30.73372,13.822756 32.3245598,13.822756 Z" id="o"></path>
                    <path d="M21.2708992,15.8285019 C18.4406841,15.8285019 16.1463415,13.5385942 16.1463415,10.7138499 C16.1463415,7.88910563 18.4406841,5.59919795 21.2708992,5.59919795 C24.1011143,5.59919795 26.3954569,7.88910563 26.3954569,10.7138499 C26.3954569,13.5385942 24.1011143,15.8285019 21.2708992,15.8285019 Z M21.2374054,13.822756 C22.8282452,13.822756 24.1178757,12.4308513 24.1178757,10.7138499 C24.1178757,8.99684849 22.8282452,7.60494382 21.2374054,7.60494382 C19.6465655,7.60494382 18.356935,8.99684849 18.356935,10.7138499 C18.356935,12.4308513 19.6465655,13.822756 21.2374054,13.822756 Z" id="o"></path>
                    <g id="big-g">
                        <polygon id="Rectangle-1" points="8.03852193 7.22068514 14.8042779 7.22068514 14.7372902 9.3601474 8.03852193 9.3601474"></polygon>
                        <path d="M13.4728854,2.18674196 L11.924691,3.73194373 C10.9590356,2.74653272 9.5875171,2.20632046 8.00502809,2.20632046 C4.84184652,2.20632046 2.27758121,4.76562905 2.27758121,7.92269619 C2.27758121,11.0797633 4.84184652,13.6390719 8.00502809,13.6390719 C11.1682097,13.6390719 13.4140218,11.8139215 13.4093117,7.92269619 C13.4146616,7.68222101 13.4090509,7.44813923 13.3929599,7.22068514 L15.3692808,7.22068514 C15.369505,7.24713968 15.3696173,7.27364802 15.3696173,7.30020983 C16.1130236,12.7483693 12.395338,15.8854812 7.93804041,15.8453924 C3.55398597,15.8391184 0,12.2982805 0,7.92269619 C0,3.54711191 3.55398175,0 7.93804041,0 C10.2296091,0 12.1560077,0.799067207 13.4728854,2.18674196 Z" id="Oval-1"></path>
                    </g>
                </g>
            </g>
            <path d="M28.5062294,24.016 L15.5358322,38.2666667 L32.8369716,28.7733333 L28.5062294,24.016 Z M34.0290704,17.9386667 L29.4054946,23.0101333 L34.0498349,28.1024 L40.3681184,24.624 C41.5415824,23.9648 42,23.6581333 42,23.0314667 C42,22.4037333 41.5415824,22.0976 40.3681184,21.4384 L34.0290704,17.9386667 Z M15.5773613,7.77546667 L28.4854648,22.0048 L32.79491,17.2682667 L15.5773613,7.77546667 Z M13.0462145,7 C12.3854755,7.2016 12,7.90453333 12,8.88586667 L12,23.0314667 L12,37.1557333 C12,38.1296 12.3726973,38.792 13.0249175,39 L27.5856671,22.9893333 L13.0462145,7 Z" id="Fill-1" fill="#071228"></path>
        </g>
    </g>
</svg>