<?xml version="1.0" encoding="UTF-8"?> <svg xmlns="http://www.w3.org/2000/svg" xmlns:xlink="http://www.w3.org/1999/xlink" width="47px" height="41px" viewBox="0 0 47 41"><!-- Generator: Sketch 53 (72520) - https://sketchapp.com --><title>Ride</title><desc>Created with Sketch.</desc><g id="Ride" stroke="none" stroke-width="1" fill="none" fill-rule="evenodd" stroke-linecap="round" stroke-linejoin="round"><g id="Group-13-Copy" transform="translate(3.000000, 5.000000)" stroke="#071228" stroke-width="3"><path d="M41.2944451,18.6553665 C41.2944451,23.1292665 37.6940621,26.7553665 33.2518919,26.7553665 C28.8097217,26.7553665 25.2093387,23.1292665 25.2093387,18.6553665 C25.2093387,14.1814665 28.8097217,10.5553665 33.2518919,10.5553665 C37.6940621,10.5553665 41.2944451,14.1814665 41.2944451,18.6553665 Z" id="Stroke-1"></path><path d="M16.2731685,18.6553665 C16.2731685,23.1292665 12.6727856,26.7553665 8.2306153,26.7553665 C3.78844508,26.7553665 0.188062109,23.1292665 0.188062109,18.6553665 C0.188062109,14.1814665 3.78844508,10.5553665 8.2306153,10.5553665 C12.6727856,10.5553665 16.2731685,14.1814665 16.2731685,18.6553665 Z" id="Stroke-3"></path><polyline id="Stroke-5" points="33.2518919 18.6553665 27.8901898 6.95536645 29.6774239 3.35536645 25.2093387 0.655366459"></polyline><path d="M27.8901898,6.95536645 L13.5923175,6.95536645 L8.2306153,18.6553665 L20.6661898,18.6553665 C22.4298048,15.1487531 23.6078094,12.9157252 24.2002035,11.9562829" id="Stroke-7"></path><path d="M13.5923175,6.95536645 L13.5923175,4.25536645" id="Stroke-9"></path><path d="M16.2731685,3.35536645 L10.9114664,3.35536645" id="Stroke-11"></path></g></g></svg> 