<?xml version="1.0" encoding="UTF-8"?> <svg xmlns="http://www.w3.org/2000/svg" xmlns:xlink="http://www.w3.org/1999/xlink" width="47px" height="41px" viewBox="0 0 47 41"><!-- Generator: Sketch 53 (72520) - https://sketchapp.com --><title>Scan</title><desc>Created with Sketch.</desc><g id="Scan" stroke="none" stroke-width="1" fill="none" fill-rule="evenodd"><g id="Group-15-Copy" transform="translate(9.000000, 5.000000)" stroke="#071228"><g id="Group-8" transform="translate(0.000000, 0.290684)" stroke-linejoin="round" stroke-width="3"><polygon id="Stroke-1" points="0 8.08657895 7.6888 8.08657895 7.6888 0.498947368 0 0.498947368"></polygon><polygon id="Stroke-3" points="19.8328 8.08657895 27.5216 8.08657895 27.5216 0.498947368 19.8328 0.498947368"></polygon><polygon id="Stroke-4" points="0 27.6315789 7.6888 27.6315789 7.6888 20.0423684 0 20.0423684"></polygon><polygon id="Stroke-5" points="19.8328 27.6315789 27.5216 27.6315789 27.5216 20.0423684 19.8328 20.0423684"></polygon><path d="M13.76232,0.498868421 L13.76232,8.0865" id="Stroke-6"></path><path d="M13.76232,25.0042105 L13.76232,29.1047368" id="Stroke-7"></path></g><polyline id="Stroke-9" stroke-width="3" points="7.49672 14.3547632 13.76232 14.3547632 13.76232 22.7721316"></polyline><g id="Group-14" transform="translate(0.000000, 13.711737)" stroke-linecap="square" stroke-width="3.2"><path d="M-0.00016,0.643026316 L3.02384,0.643026316" id="Stroke-10"></path><path d="M19.83456,0.643026316 L27.52176,0.643026316" id="Stroke-12"></path></g></g></g></svg> 